<mxfile host="app.diagrams.net" modified="2024-05-02T05:49:02.312Z" agent="Mozilla/5.0 (Windows NT 10.0; Win64; x64) AppleWebKit/537.36 (KHTML, like Gecko) Chrome/124.0.0.0 Safari/537.36" version="24.3.1" etag="yjl11cPx7QxcyruO3I6E" type="device">
  <diagram id="UbzpNsTpZnO7c2WZzxSM" name="Page-1">
    <mxGraphModel dx="1303" dy="574" grid="1" gridSize="10" guides="1" tooltips="1" connect="1" arrows="1" fold="1" page="1" pageScale="1" pageWidth="850" pageHeight="1100" math="0" shadow="0">
      <root>
        <mxCell id="0" />
        <mxCell id="1" parent="0" />
        <mxCell id="OPRXAlk0fu0t40kegDR8-1" value="" style="edgeStyle=none;rounded=0;orthogonalLoop=1;jettySize=auto;html=1;" edge="1" source="OPRXAlk0fu0t40kegDR8-2" parent="1">
          <mxGeometry relative="1" as="geometry">
            <mxPoint x="380" y="370" as="targetPoint" />
          </mxGeometry>
        </mxCell>
        <mxCell id="OPRXAlk0fu0t40kegDR8-2" value="Upload Music" style="rounded=1;whiteSpace=wrap;html=1;fontSize=12;glass=0;strokeWidth=1;shadow=0;" vertex="1" parent="1">
          <mxGeometry x="320" y="280" width="120" height="40" as="geometry" />
        </mxCell>
        <mxCell id="OPRXAlk0fu0t40kegDR8-3" style="edgeStyle=orthogonalEdgeStyle;rounded=0;orthogonalLoop=1;jettySize=auto;html=1;exitX=0.5;exitY=1;exitDx=0;exitDy=0;entryX=0.5;entryY=0;entryDx=0;entryDy=0;" edge="1" target="OPRXAlk0fu0t40kegDR8-9" parent="1">
          <mxGeometry relative="1" as="geometry">
            <mxPoint x="385" y="525" as="sourcePoint" />
          </mxGeometry>
        </mxCell>
        <mxCell id="OPRXAlk0fu0t40kegDR8-4" style="edgeStyle=orthogonalEdgeStyle;rounded=0;orthogonalLoop=1;jettySize=auto;html=1;exitX=0.5;exitY=1;exitDx=0;exitDy=0;entryX=0.5;entryY=0;entryDx=0;entryDy=0;entryPerimeter=0;" edge="1" source="OPRXAlk0fu0t40kegDR8-10" target="OPRXAlk0fu0t40kegDR8-5" parent="1">
          <mxGeometry relative="1" as="geometry">
            <mxPoint x="385" y="705" as="targetPoint" />
            <mxPoint x="385" y="745" as="sourcePoint" />
          </mxGeometry>
        </mxCell>
        <mxCell id="OPRXAlk0fu0t40kegDR8-5" value="" style="strokeWidth=2;html=1;shape=mxgraph.flowchart.start_2;whiteSpace=wrap;fillColor=#FFFFFF;fillStyle=solid;" vertex="1" parent="1">
          <mxGeometry x="370" y="710" width="30" height="30" as="geometry" />
        </mxCell>
        <mxCell id="OPRXAlk0fu0t40kegDR8-6" style="edgeStyle=none;rounded=0;orthogonalLoop=1;jettySize=auto;html=1;exitX=0.5;exitY=1;exitDx=0;exitDy=0;exitPerimeter=0;" edge="1" source="OPRXAlk0fu0t40kegDR8-7" parent="1">
          <mxGeometry relative="1" as="geometry">
            <mxPoint x="380" y="90" as="targetPoint" />
          </mxGeometry>
        </mxCell>
        <mxCell id="OPRXAlk0fu0t40kegDR8-7" value="" style="strokeWidth=2;html=1;shape=mxgraph.flowchart.start_2;whiteSpace=wrap;" vertex="1" parent="1">
          <mxGeometry x="370" y="20" width="20" height="20" as="geometry" />
        </mxCell>
        <mxCell id="OPRXAlk0fu0t40kegDR8-8" style="edgeStyle=orthogonalEdgeStyle;rounded=0;orthogonalLoop=1;jettySize=auto;html=1;exitX=0.5;exitY=1;exitDx=0;exitDy=0;entryX=0.5;entryY=0;entryDx=0;entryDy=0;" edge="1" source="OPRXAlk0fu0t40kegDR8-9" target="OPRXAlk0fu0t40kegDR8-10" parent="1">
          <mxGeometry relative="1" as="geometry" />
        </mxCell>
        <mxCell id="OPRXAlk0fu0t40kegDR8-9" value="Predictive Model" style="rounded=1;whiteSpace=wrap;html=1;fontSize=12;glass=0;strokeWidth=1;shadow=0;" vertex="1" parent="1">
          <mxGeometry x="325" y="555" width="120" height="40" as="geometry" />
        </mxCell>
        <mxCell id="OPRXAlk0fu0t40kegDR8-10" value="Display Popularity Label of the music" style="rounded=1;whiteSpace=wrap;html=1;fontSize=12;glass=0;strokeWidth=1;shadow=0;" vertex="1" parent="1">
          <mxGeometry x="325" y="625" width="120" height="40" as="geometry" />
        </mxCell>
        <mxCell id="OPRXAlk0fu0t40kegDR8-11" value="" style="strokeWidth=2;html=1;shape=mxgraph.flowchart.start_2;whiteSpace=wrap;fillStyle=solid;fillColor=#000000;" vertex="1" parent="1">
          <mxGeometry x="375" y="715" width="20" height="20" as="geometry" />
        </mxCell>
        <mxCell id="OPRXAlk0fu0t40kegDR8-12" value="&lt;span style=&quot;font-size: 19px;&quot;&gt;&lt;b&gt;Popularity Prediction&lt;/b&gt;&lt;/span&gt;" style="text;html=1;strokeColor=none;fillColor=none;align=center;verticalAlign=middle;whiteSpace=wrap;rounded=0;" vertex="1" parent="1">
          <mxGeometry x="325" y="750" width="135" height="30" as="geometry" />
        </mxCell>
        <mxCell id="OPRXAlk0fu0t40kegDR8-13" value="Preprocess Music" style="rounded=1;whiteSpace=wrap;html=1;fontSize=12;glass=0;strokeWidth=1;shadow=0;" vertex="1" parent="1">
          <mxGeometry x="325" y="490" width="120" height="40" as="geometry" />
        </mxCell>
        <mxCell id="OPRXAlk0fu0t40kegDR8-14" style="edgeStyle=orthogonalEdgeStyle;rounded=0;orthogonalLoop=1;jettySize=auto;html=1;exitX=1;exitY=0.5;exitDx=0;exitDy=0;entryX=0;entryY=0.5;entryDx=0;entryDy=0;" edge="1" source="OPRXAlk0fu0t40kegDR8-18" parent="1">
          <mxGeometry relative="1" as="geometry">
            <mxPoint x="440" y="390" as="sourcePoint" />
            <mxPoint x="480" y="410" as="targetPoint" />
          </mxGeometry>
        </mxCell>
        <mxCell id="OPRXAlk0fu0t40kegDR8-15" style="edgeStyle=orthogonalEdgeStyle;rounded=0;orthogonalLoop=1;jettySize=auto;html=1;exitX=0.5;exitY=0;exitDx=0;exitDy=0;entryX=1;entryY=0.5;entryDx=0;entryDy=0;" edge="1" source="OPRXAlk0fu0t40kegDR8-16" target="OPRXAlk0fu0t40kegDR8-2" parent="1">
          <mxGeometry relative="1" as="geometry" />
        </mxCell>
        <mxCell id="OPRXAlk0fu0t40kegDR8-16" value="Invalid File type&amp;nbsp;" style="rounded=1;whiteSpace=wrap;html=1;fontSize=12;glass=0;strokeWidth=1;shadow=0;" vertex="1" parent="1">
          <mxGeometry x="480" y="390" width="120" height="40" as="geometry" />
        </mxCell>
        <mxCell id="OPRXAlk0fu0t40kegDR8-17" style="edgeStyle=orthogonalEdgeStyle;rounded=0;orthogonalLoop=1;jettySize=auto;html=1;exitX=0.5;exitY=1;exitDx=0;exitDy=0;" edge="1" source="OPRXAlk0fu0t40kegDR8-18" parent="1">
          <mxGeometry relative="1" as="geometry">
            <mxPoint x="380.17647058823536" y="490" as="targetPoint" />
          </mxGeometry>
        </mxCell>
        <mxCell id="OPRXAlk0fu0t40kegDR8-18" value="Valid File&lt;br&gt;&amp;nbsp;Type ?" style="rhombus;whiteSpace=wrap;html=1;shadow=0;fontFamily=Helvetica;fontSize=12;align=center;strokeWidth=1;spacing=6;spacingTop=-4;" vertex="1" parent="1">
          <mxGeometry x="330" y="370" width="100" height="80" as="geometry" />
        </mxCell>
        <mxCell id="OPRXAlk0fu0t40kegDR8-19" value="&lt;b style=&quot;font-size: 14px;&quot;&gt;&lt;font style=&quot;font-size: 14px;&quot;&gt;No&lt;/font&gt;&lt;/b&gt;" style="text;html=1;strokeColor=none;fillColor=none;align=center;verticalAlign=middle;whiteSpace=wrap;rounded=0;fontSize=14;" vertex="1" parent="1">
          <mxGeometry x="430" y="370" width="40" height="30" as="geometry" />
        </mxCell>
        <mxCell id="OPRXAlk0fu0t40kegDR8-20" value="&lt;b style=&quot;font-size: 14px;&quot;&gt;&lt;font style=&quot;font-size: 14px;&quot;&gt;Yes&lt;/font&gt;&lt;/b&gt;" style="text;html=1;strokeColor=none;fillColor=none;align=center;verticalAlign=middle;whiteSpace=wrap;rounded=0;fontSize=14;" vertex="1" parent="1">
          <mxGeometry x="390" y="450" width="40" height="30" as="geometry" />
        </mxCell>
        <mxCell id="OPRXAlk0fu0t40kegDR8-21" style="edgeStyle=orthogonalEdgeStyle;rounded=0;orthogonalLoop=1;jettySize=auto;html=1;exitX=0.5;exitY=1;exitDx=0;exitDy=0;entryX=0.5;entryY=0;entryDx=0;entryDy=0;" edge="1" source="OPRXAlk0fu0t40kegDR8-22" target="OPRXAlk0fu0t40kegDR8-25" parent="1">
          <mxGeometry relative="1" as="geometry" />
        </mxCell>
        <mxCell id="OPRXAlk0fu0t40kegDR8-22" value="Choose input method" style="rounded=1;whiteSpace=wrap;html=1;fontSize=12;glass=0;strokeWidth=1;shadow=0;" vertex="1" parent="1">
          <mxGeometry x="320" y="90" width="120" height="40" as="geometry" />
        </mxCell>
        <mxCell id="OPRXAlk0fu0t40kegDR8-23" value="" style="edgeStyle=orthogonalEdgeStyle;rounded=0;orthogonalLoop=1;jettySize=auto;html=1;" edge="1" source="OPRXAlk0fu0t40kegDR8-25" target="OPRXAlk0fu0t40kegDR8-2" parent="1">
          <mxGeometry relative="1" as="geometry" />
        </mxCell>
        <mxCell id="OPRXAlk0fu0t40kegDR8-24" style="edgeStyle=orthogonalEdgeStyle;rounded=0;orthogonalLoop=1;jettySize=auto;html=1;exitX=0;exitY=0.5;exitDx=0;exitDy=0;entryX=0;entryY=0.5;entryDx=0;entryDy=0;" edge="1" source="OPRXAlk0fu0t40kegDR8-25" target="OPRXAlk0fu0t40kegDR8-13" parent="1">
          <mxGeometry relative="1" as="geometry">
            <Array as="points">
              <mxPoint x="270" y="210" />
              <mxPoint x="270" y="510" />
            </Array>
          </mxGeometry>
        </mxCell>
        <mxCell id="OPRXAlk0fu0t40kegDR8-25" value="Is Search Music?" style="rhombus;whiteSpace=wrap;html=1;shadow=0;fontFamily=Helvetica;fontSize=12;align=center;strokeWidth=1;spacing=6;spacingTop=-4;" vertex="1" parent="1">
          <mxGeometry x="330" y="170" width="100" height="80" as="geometry" />
        </mxCell>
        <mxCell id="OPRXAlk0fu0t40kegDR8-26" value="&lt;b style=&quot;font-size: 14px;&quot;&gt;&lt;font style=&quot;font-size: 14px;&quot;&gt;No&lt;/font&gt;&lt;/b&gt;" style="text;html=1;strokeColor=none;fillColor=none;align=center;verticalAlign=middle;whiteSpace=wrap;rounded=0;fontSize=14;" vertex="1" parent="1">
          <mxGeometry x="390" y="250" width="40" height="30" as="geometry" />
        </mxCell>
        <mxCell id="OPRXAlk0fu0t40kegDR8-27" value="&lt;b style=&quot;font-size: 14px;&quot;&gt;&lt;font style=&quot;font-size: 14px;&quot;&gt;Yes&lt;/font&gt;&lt;/b&gt;" style="text;html=1;strokeColor=none;fillColor=none;align=center;verticalAlign=middle;whiteSpace=wrap;rounded=0;fontSize=14;" vertex="1" parent="1">
          <mxGeometry x="280" y="180" width="40" height="30" as="geometry" />
        </mxCell>
      </root>
    </mxGraphModel>
  </diagram>
</mxfile>
